<svg id="visual" viewBox="0 0 900 600" width="900" height="600" xmlns="http://www.w3.org/2000/svg" xmlns:xlink="http://www.w3.org/1999/xlink" version="1.1"><path d="M0 322L25 321C50 320 100 318 150 309.8C200 301.7 250 287.3 300 293C350 298.7 400 324.3 450 325.8C500 327.3 550 304.7 600 289.3C650 274 700 266 750 272C800 278 850 298 875 308L900 318L900 601L875 601C850 601 800 601 750 601C700 601 650 601 600 601C550 601 500 601 450 601C400 601 350 601 300 601C250 601 200 601 150 601C100 601 50 601 25 601L0 601Z" fill="#151D25" stroke-linecap="round" stroke-linejoin="miter"></path></svg>